<svg width="30" height="30" viewBox="0 0 30 30" fill="none" xmlns="http://www.w3.org/2000/svg">
<path d="M17.5 23.75H23.75V6.25H6.25V23.75H15V17.5H12.5V15H15V12.9325C15 11.2612 15.175 10.655 15.5 10.0437C15.8201 9.43898 16.315 8.94461 16.92 8.625C17.3975 8.36875 17.9912 8.215 19.0287 8.14875C19.44 8.1225 19.9725 8.155 20.6262 8.24875V10.6237H20C18.8538 10.6237 18.38 10.6775 18.0975 10.8288C17.9289 10.9154 17.7917 11.0527 17.705 11.2213C17.555 11.5038 17.5 11.7838 17.5 12.9313V15H20.625L20 17.5H17.5V23.75ZM5 3.75H25C25.3315 3.75 25.6495 3.8817 25.8839 4.11612C26.1183 4.35054 26.25 4.66848 26.25 5V25C26.25 25.3315 26.1183 25.6495 25.8839 25.8839C25.6495 26.1183 25.3315 26.25 25 26.25H5C4.66848 26.25 4.35054 26.1183 4.11612 25.8839C3.8817 25.6495 3.75 25.3315 3.75 25V5C3.75 4.66848 3.8817 4.35054 4.11612 4.11612C4.35054 3.8817 4.66848 3.75 5 3.75V3.75Z" fill="white"/>
</svg>
