<svg width="30" height="30" viewBox="0 0 30 30" fill="none" xmlns="http://www.w3.org/2000/svg">
<path d="M19.125 6.93752C18.175 6.93736 17.2629 7.31017 16.5849 7.97573C15.907 8.64129 15.5174 9.54639 15.5 10.4963L15.465 12.465C15.463 12.5707 15.4386 12.6748 15.3935 12.7704C15.3484 12.866 15.2836 12.9511 15.2033 13.0199C15.1231 13.0887 15.0292 13.1398 14.9278 13.1697C14.8264 13.1997 14.7198 13.2079 14.615 13.1938L12.6638 12.9288C10.0963 12.5788 7.63627 11.3963 5.27627 9.43002C4.52877 13.5675 5.98877 16.4338 9.50502 18.645L11.6888 20.0175C11.7925 20.0827 11.8787 20.1724 11.9398 20.2786C12.0009 20.3848 12.0351 20.5044 12.0393 20.6269C12.0435 20.7493 12.0176 20.871 11.9639 20.9811C11.9102 21.0913 11.8303 21.1866 11.7313 21.2588L9.74127 22.7125C10.925 22.7863 12.0488 22.7338 12.9813 22.5488C18.8788 21.3713 22.8 16.9338 22.8 9.61377C22.8 9.01627 21.535 6.93752 19.125 6.93752ZM13 10.45C13.0218 9.24508 13.3986 8.07336 14.0832 7.08155C14.7678 6.08974 15.7298 5.32192 16.8487 4.87423C17.9676 4.42654 19.1937 4.31887 20.3735 4.56471C21.5532 4.81054 22.6343 5.39895 23.4813 6.25627C24.37 6.25002 25.1263 6.47502 26.8175 5.45002C26.3988 7.50002 26.1925 8.39002 25.3 9.61377C25.3 19.1663 19.4288 23.8113 13.4713 25C9.38627 25.815 3.44627 24.4763 1.74377 22.6988C2.61127 22.6313 6.13627 22.2525 8.17377 20.7613C6.45002 19.625 -0.411226 15.5875 4.09752 4.73252C6.21377 7.20377 8.36002 8.88627 10.535 9.77877C11.9825 10.3725 12.3375 10.36 13.0013 10.4513L13 10.45Z" fill="white"/>
</svg>
